<svg xmlns="http://www.w3.org/2000/svg" aria-hidden="true" style="position:absolute;width:0;height:0;overflow:hidden">
    <defs>
      <symbol id="icon-done" viewBox="0 0 56 32">
        <path fill="#fff" d="M30.84 21.6a3.996 3.996 0 0 1-4.378.876 4.006 4.006 0 0 1-1.302-.876L6.84 3.24A4.011 4.011 0 0 0 4 2.056 3.999 3.999 0 0 0 1.16 3.24a3.999 3.999 0 0 0 0 5.64l18.36 18.36a12 12 0 0 0 16.96 0L54.84 8.88a4.008 4.008 0 0 0 0-5.64A4.011 4.011 0 0 0 52 2.056a3.999 3.999 0 0 0-2.84 1.184L30.84 21.6z" style="fill:var(--color1, #fff)"/>
      </symbol>
      <symbol id="icon-done_green" viewBox="0 0 32 32">
        <path fill="#4dc274" d="M16 32c8.837 0 16-7.163 16-16S24.837 0 16 0 0 7.163 0 16s7.163 16 16 16z" style="fill:var(--color2, #4dc274)"/>
        <path fill="#fff" d="M16.473 16.933a.68.68 0 0 1-.473.197.66.66 0 0 1-.473-.197l-3.053-3.06a.68.68 0 0 0-.473-.197.66.66 0 0 0-.473.197.668.668 0 0 0 0 .94l3.06 3.06a1.997 1.997 0 0 0 2.826 0l3.06-3.06a.664.664 0 0 0 .144-.723.659.659 0 0 0-.361-.363.66.66 0 0 0-.512 0 .664.664 0 0 0-.217.146l-3.053 3.06z" style="fill:var(--color1, #fff)"/>
      </symbol>
      <symbol id="icon-done_white" viewBox="0 0 32 32">
        <path fill="#fff" d="M16 32c8.837 0 16-7.163 16-16S24.837 0 16 0 0 7.163 0 16s7.163 16 16 16z" style="fill:var(--color1, #fff)"/>
        <path fill="#4dc274" d="M16.473 16.933a.68.68 0 0 1-.473.197.66.66 0 0 1-.473-.197l-3.053-3.06a.68.68 0 0 0-.473-.197.66.66 0 0 0-.473.197.668.668 0 0 0 0 .94l3.06 3.06a1.997 1.997 0 0 0 2.826 0l3.06-3.06a.664.664 0 0 0 .144-.723.659.659 0 0 0-.361-.363.66.66 0 0 0-.512 0 .664.664 0 0 0-.217.146l-3.053 3.06z" style="fill:var(--color2, #4dc274)"/>
      </symbol>
      <symbol id="icon-facebook" viewBox="0 0 32 32">
        <path d="M19.52 4.64c0.24 0 0.48 0 0.96 0v3.6c-0.24 0-0.72 0-1.2 0s-0.96 0-1.2 0.24c-0.24 0.24-0.24 0.48-0.24 1.040 0 0.48 0 0.8 0 1.28h2.64v3.040h-2.64v13.2h-4.080v-13.28h-2.16v-3.040h2.16v-1.040c0-1.76 0.24-3.040 0.72-3.6 0.72-1.040 2.16-1.52 4.32-1.52 0.24 0.080 0.48 0.080 0.72 0.080z" />
      </symbol>
     <symbol id="icon-insta" viewBox="0 0 32 32">
        <path d="M28.718 10.756c-0.016-1.074-0.215-2.14-0.596-3.145-0.667-1.716-2.024-3.073-3.743-3.737-0.994-0.373-2.044-0.573-3.108-0.596-1.368-0.061-1.801-0.078-5.273-0.078s-3.916 0-5.274 0.078c-1.062 0.023-2.113 0.223-3.106 0.596-1.719 0.664-3.078 2.021-3.743 3.737-0.374 0.992-0.576 2.041-0.596 3.101-0.061 1.367-0.080 1.8-0.080 5.265s0 3.909 0.080 5.265c0.021 1.062 0.222 2.109 0.596 3.104 0.667 1.714 2.024 3.071 3.744 3.735 0.989 0.386 2.040 0.605 3.106 0.639 1.369 0.061 1.803 0.079 5.274 0.079s3.916 0 5.274-0.079c1.062-0.021 2.112-0.221 3.108-0.595 1.719-0.666 3.076-2.022 3.743-3.737 0.374-0.994 0.574-2.041 0.596-3.104 0.061-1.365 0.080-1.798 0.080-5.265-0.003-3.466-0.003-3.906-0.082-5.264zM15.99 22.531c-3.631 0-6.572-2.936-6.572-6.561s2.941-6.561 6.572-6.561c3.628 0 6.572 2.936 6.572 6.561s-2.944 6.561-6.572 6.561zM22.824 10.696c-0.849 0-1.532-0.684-1.532-1.53s0.684-1.53 1.532-1.53c0.846 0 1.531 0.684 1.531 1.53s-0.685 1.53-1.531 1.53z" />
        <path d="M15.992 19.976c2.211 0 4.004-1.793 4.004-4.004s-1.793-4.004-4.004-4.004c-2.211 0-4.004 1.793-4.004 4.004s1.793 4.004 4.004 4.004z" />
      </symbol>
      <symbol id="icon-youtube" viewBox="0 0 32 32">
        <path d="M24.24 6c-1.36-0.080-4.16-0.16-8.4-0.16h-0.56c-4.080 0-6.8 0.080-8.16 0.24-1.84 0.16-3.12 0.64-3.84 1.28-0.64 0.56-1.12 1.6-1.28 2.96-0.080 0.88-0.16 2.72-0.16 5.52v0.4c0 2.64 0.080 4.48 0.24 5.36 0.24 1.28 0.64 2.24 1.44 2.8 0.8 0.64 2.16 1.040 4.080 1.2 1.36 0.080 4.16 0.16 8.4 0.16h0.56c4.080 0 6.8-0.080 8.16-0.24 1.84-0.16 3.12-0.64 3.84-1.28 0.64-0.56 1.12-1.6 1.28-2.96 0.080-0.88 0.16-2.72 0.16-5.52v-0.4c0-2.64-0.080-4.48-0.24-5.36-0.24-1.28-0.64-2.24-1.44-2.8-0.8-0.64-2.16-1.040-4.080-1.2zM21.12 15.84l-8.8 5.28v-10.56l8.8 5.28z" />
      </symbol>
      <symbol id="icon-youtube" viewBox="0 0 32 32">
        <path d="M24.24 6c-1.36-0.080-4.16-0.16-8.4-0.16h-0.56c-4.080 0-6.8 0.080-8.16 0.24-1.84 0.16-3.12 0.64-3.84 1.28-0.64 0.56-1.12 1.6-1.28 2.96-0.080 0.88-0.16 2.72-0.16 5.52v0.4c0 2.64 0.080 4.48 0.24 5.36 0.24 1.28 0.64 2.24 1.44 2.8 0.8 0.64 2.16 1.040 4.080 1.2 1.36 0.080 4.16 0.16 8.4 0.16h0.56c4.080 0 6.8-0.080 8.16-0.24 1.84-0.16 3.12-0.64 3.84-1.280.64-0.56 1.12-1.6 1.28-2.96 0.080-0.88 0.16-2.72 0.16-5.52v-0.4c0-2.64-0.080-4.48-0.24-5.36-0.24-1.28-0.64-2.24-1.44-2.8-0.8-0.64-2.16-1.040-4.080-1.2zM21.1215.84l-8.8 5.28v-10.56l8.8 5.28z" />
      </symbol>
      <symbol id="icon-nav" viewBox="0 0 32 32">
        <path stroke-linecap="round" stroke-width="2.4" d="M6.07 8.351H30.8M6.07 21.927H30.8M13.722 15.139H30.8"/>
      </symbol>
      <symbol id="icon-nav_bold" viewBox="0 0 32 32">
        <path stroke-linecap="round" stroke-width="3" d="M6.37 8.379H30.5M6.37 22.318H30.5M14.022 15.348H30.5"/>
      </symbol>
      <symbol id="icon-close_bold" viewBox="0 0 32 32">
        <path stroke-linecap="round" stroke-linejoin="round" stroke-width="3" d="M24 8 8 24M8 8l16 16"/>
      </symbol>
      <symbol id="icon-close" viewBox="0 0 32 32">
        <path stroke-linecap="round" stroke-linejoin="round" stroke-width="2.4" d="M24 8 8 24M8 8l16 16"/>
      </symbol>
      <symbol id="icon-check" viewBox="0 0 32 32">
        <path fill="none" stroke="#fff" style="stroke: var(--color1, #fff)" stroke-linejoin="round" stroke-linecap="round" stroke-miterlimit="4" stroke-width="3.2" d="M26.667 8l-14.667 14.667-6.667-6.667"></path>
      </symbol>
      <symbol id="icon-checkmark" viewBox="0 0 32 32">
        <path d="M16.947 17.867c-0.124 0.125-0.271 0.224-0.434 0.292s-0.337 0.103-0.513 0.103c-0.176 0-0.35-0.035-0.513-0.103s-0.31-0.167-0.434-0.292l-6.107-6.12c-0.124-0.125-0.271-0.224-0.434-0.292s-0.337-0.103-0.513-0.103c-0.176 0-0.35 0.035-0.513 0.103s-0.31 0.167-0.434 0.292c-0.248 0.25-0.388 0.588-0.388 0.94s0.139 0.69 0.388 0.94l6.12 6.12c0.75 0.749 1.767 1.17 2.827 1.17s2.077-0.421 2.827-1.17l6.12-6.12c0.246-0.248 0.385-0.584 0.387-0.933 0.001-0.175-0.033-0.349-0.099-0.512s-0.164-0.31-0.288-0.435c-0.124-0.125-0.271-0.224-0.434-0.292s-0.337-0.103-0.513-0.103c-0.176 0-0.35 0.035-0.513 0.103s-0.31 0.167-0.434 0.292l-6.107 6.12z"></path>
      </symbol>
      <symbol id="icon-line" viewBox="0 0 16384 32">
        <path fill="none" stroke="#fff" stroke-width="16" d="M0 16h16384" style="stroke:var(--color1, #fff)"/>
      </symbol>
    </defs>
  </svg>
