<svg xmlns="http://www.w3.org/2000/svg" aria-hidden="true" style="position:absolute;width:0;height:0;overflow:hidden">
    <defs>
      <symbol id="icon-done" viewBox="0 0 56 32">
        <path fill="#fff" d="M30.84 21.6a3.996 3.996 0 0 1-4.378.876 4.006 4.006 0 0 1-1.302-.876L6.84 3.24A4.011 4.011 0 0 0 4 2.056 3.999 3.999 0 0 0 1.16 3.24a3.999 3.999 0 0 0 0 5.64l18.36 18.36a12 12 0 0 0 16.96 0L54.84 8.88a4.008 4.008 0 0 0 0-5.64A4.011 4.011 0 0 0 52 2.056a3.999 3.999 0 0 0-2.84 1.184L30.84 21.6z" style="fill:var(--color1, #fff)"/>
      </symbol>
      <symbol id="icon-done_green" viewBox="0 0 32 32">
        <path fill="#4dc274" d="M16 32c8.837 0 16-7.163 16-16S24.837 0 16 0 0 7.163 0 16s7.163 16 16 16z" style="fill:var(--color2, #4dc274)"/>
        <path fill="#fff" d="M16.473 16.933a.68.68 0 0 1-.473.197.66.66 0 0 1-.473-.197l-3.053-3.06a.68.68 0 0 0-.473-.197.66.66 0 0 0-.473.197.668.668 0 0 0 0 .94l3.06 3.06a1.997 1.997 0 0 0 2.826 0l3.06-3.06a.664.664 0 0 0 .144-.723.659.659 0 0 0-.361-.363.66.66 0 0 0-.512 0 .664.664 0 0 0-.217.146l-3.053 3.06z" style="fill:var(--color1, #fff)"/>
      </symbol>
      <symbol id="icon-done_white" viewBox="0 0 32 32">
        <path fill="#fff" d="M16 32c8.837 0 16-7.163 16-16S24.837 0 16 0 0 7.163 0 16s7.163 16 16 16z" style="fill:var(--color1, #fff)"/>
        <path fill="#4dc274" d="M16.473 16.933a.68.68 0 0 1-.473.197.66.66 0 0 1-.473-.197l-3.053-3.06a.68.68 0 0 0-.473-.197.66.66 0 0 0-.473.197.668.668 0 0 0 0 .94l3.06 3.06a1.997 1.997 0 0 0 2.826 0l3.06-3.06a.664.664 0 0 0 .144-.723.659.659 0 0 0-.361-.363.66.66 0 0 0-.512 0 .664.664 0 0 0-.217.146l-3.053 3.06z" style="fill:var(--color2, #4dc274)"/>
      </symbol>
      <symbol id="icon-facebook" viewBox="0 0 32 32">
        <path d="M18.24 8.771h.611v2.291h-.764c-.306 0-.611 0-.764.153-.153.153-.153.305-.153.662v.815h1.68v1.935h-1.68v8.4h-2.596v-8.451h-1.375v-1.935h1.375v-.662c0-1.12.153-1.935.458-2.291.458-.662 1.375-.967 2.749-.967.153.051.305.051.458.051z"/>
      </symbol>
      <symbol id="icon-insta" viewBox="0 0 32 32">
        <path d="M24.093 12.663a5.895 5.895 0 0 0-.379-2.001 4.166 4.166 0 0 0-2.382-2.378 5.96 5.96 0 0 0-1.978-.379c-.87-.039-1.146-.05-3.355-.05s-2.492 0-3.356.05a5.99 5.99 0 0 0-1.977.379 4.163 4.163 0 0 0-2.382 2.378 5.916 5.916 0 0 0-.379 1.973c-.039.87-.051 1.145-.051 3.351s0 2.487.051 3.351c.014.676.141 1.342.379 1.975a4.166 4.166 0 0 0 2.383 2.377 5.94 5.94 0 0 0 1.977.406c.871.039 1.147.051 3.356.051s2.492 0 3.356-.051a6 6 0 0 0 1.978-.378 4.172 4.172 0 0 0 2.382-2.378 5.923 5.923 0 0 0 .379-1.975c.039-.869.051-1.144.051-3.351-.002-2.205-.002-2.485-.052-3.35zm-8.099 7.493c-2.31 0-4.182-1.869-4.182-4.175s1.872-4.175 4.182-4.175c2.309 0 4.182 1.869 4.182 4.175s-1.874 4.175-4.182 4.175zm4.348-7.531a.973.973 0 1 1 0-1.948.973.973 0 1 1 0 1.948z"/>
        <path d="M15.995 18.53a2.548 2.548 0 1 0 0-5.097 2.548 2.548 0 0 0 0 5.097z"/>
      </symbol>
      <symbol id="icon-youtube" viewBox="0 0 32 32">
        <path d="M21.244 9.636c-.865-.051-2.647-.102-5.345-.102h-.356c-2.596 0-4.327.051-5.193.153-1.171.102-1.986.407-2.444.815-.407.356-.713 1.018-.814 1.884-.051.56-.102 1.731-.102 3.513v.255c0 1.68.051 2.851.153 3.411.153.815.407 1.425.916 1.782.509.407 1.375.662 2.596.764.865.051 2.647.102 5.345.102h.356c2.596 0 4.327-.051 5.193-.153 1.171-.102 1.985-.407 2.444-.815.407-.356.713-1.018.814-1.884.051-.56.102-1.731.102-3.513v-.255c0-1.68-.051-2.851-.153-3.411-.153-.815-.407-1.425-.916-1.782-.509-.407-1.375-.662-2.596-.764zm-1.986 6.262-5.6 3.36v-6.72l5.6 3.36z"/>
      </symbol>
      <symbol id="icon-nav" viewBox="0 0 32 32">
        <path stroke-linecap="round" stroke-width="2.4" d="M6.07 8.351H30.8M6.07 21.927H30.8M13.722 15.139H30.8"/>
      </symbol>
      <symbol id="icon-nav_bold" viewBox="0 0 32 32">
        <path stroke-linecap="round" stroke-width="3" d="M6.37 8.379H30.5M6.37 22.318H30.5M14.022 15.348H30.5"/>
      </symbol>
      <symbol id="icon-close_bold" viewBox="0 0 32 32">
        <path stroke-linecap="round" stroke-linejoin="round" stroke-width="3" d="M24 8 8 24M8 8l16 16"/>
      </symbol>
      <symbol id="icon-close" viewBox="0 0 32 32">
        <path stroke-linecap="round" stroke-linejoin="round" stroke-width="2.4" d="M24 8 8 24M8 8l16 16"/>
      </symbol>
    </defs>
  </svg>
